<svg width="173" height="62" viewBox="0 0 173 62" fill="none" xmlns="http://www.w3.org/2000/svg">
<rect x="60" y="8" width="113" height="50" rx="13" fill="url(#paint0_linear_4_63)"/>
<rect y="4" width="82" height="58" rx="15" fill="url(#paint1_linear_4_63)"/>
<path d="M51.0102 50.432C51.9702 50.24 52.7222 49.84 53.2662 49.232C53.8102 48.592 54.0822 47.824 54.0822 46.928C54.0822 46.32 53.9382 45.68 53.6502 45.008L42.1782 17.408C41.7942 16.448 41.0582 15.968 39.9702 15.968C38.9462 15.968 38.2262 16.448 37.8102 17.408L26.3382 45.008C26.0502 45.68 25.9062 46.32 25.9062 46.928C25.9062 47.792 26.1782 48.544 26.7222 49.184C27.2662 49.824 28.0182 50.24 28.9782 50.432L33.1062 40.4H46.8822L51.0102 50.432ZM34.4982 36.512L40.6902 20.816L41.0742 20.96L40.2102 23.168L45.4902 36.512H34.4982Z" fill="white"/>
<path d="M68.1809 49.6C66.3676 49.6 64.7143 49.2133 63.2209 48.44C61.7543 47.64 60.5809 46.4933 59.7009 45C58.8476 43.48 58.4209 41.6267 58.4209 39.44C58.4209 37.28 58.8876 35.44 59.8209 33.92C60.7809 32.3733 62.0476 31.2 63.6209 30.4C65.2209 29.5733 66.9676 29.16 68.8609 29.16C70.4076 29.16 71.7143 29.4133 72.7809 29.92C73.8476 30.4267 74.6609 31.0933 75.2209 31.92C75.7809 32.72 76.0609 33.56 76.0609 34.44C76.0609 35.1867 75.8343 35.7733 75.3809 36.2C74.9276 36.6 74.3409 36.8 73.6209 36.8C72.8476 36.8 72.2209 36.52 71.7409 35.96C71.2609 35.4 70.9809 34.6667 70.9009 33.76C70.8743 33.1733 70.8876 32.68 70.9409 32.28C70.9943 31.8533 70.9943 31.4267 70.9409 31C70.8343 30.5467 70.6609 30.2533 70.4209 30.12C70.2076 29.96 69.9009 29.88 69.5009 29.88C67.8743 29.88 66.6076 30.5867 65.7009 32C64.8209 33.4133 64.3809 35.6667 64.3809 38.76C64.3809 41.4533 64.8743 43.52 65.8609 44.96C66.8743 46.3733 68.4209 47.08 70.5009 47.08C71.7543 47.08 72.7676 46.8533 73.5409 46.4C74.3143 45.9467 75.0609 45.2667 75.7809 44.36L76.1809 44.68C75.5143 46.2533 74.4876 47.4667 73.1009 48.32C71.7143 49.1733 70.0743 49.6 68.1809 49.6ZM83.6322 49.6C82.0855 49.6 80.7789 49.16 79.7122 48.28C78.6722 47.4 78.1522 46.1333 78.1522 44.48C78.1522 43.2267 78.7922 42.08 80.0722 41.04C81.3522 39.9733 83.3655 39.1733 86.1122 38.64C86.5389 38.56 87.0189 38.48 87.5522 38.4C88.0855 38.2933 88.6455 38.1867 89.2322 38.08V34.92C89.2322 33.1067 89.0055 31.84 88.5522 31.12C88.1255 30.3733 87.4455 30 86.5122 30C85.8722 30 85.3655 30.2133 84.9922 30.64C84.6189 31.04 84.3789 31.7467 84.2722 32.76L84.1922 33.2C84.1389 34.3467 83.8589 35.1867 83.3522 35.72C82.8455 36.2533 82.2189 36.52 81.4722 36.52C80.7789 36.52 80.2055 36.3067 79.7522 35.88C79.2989 35.4533 79.0722 34.88 79.0722 34.16C79.0722 33.0667 79.4455 32.1467 80.1922 31.4C80.9655 30.6533 81.9789 30.0933 83.2322 29.72C84.4855 29.3467 85.8455 29.16 87.3122 29.16C89.6855 29.16 91.5122 29.7467 92.7922 30.92C94.0989 32.0667 94.7522 33.9467 94.7522 36.56V45.4C94.7522 46.6 95.3122 47.2 96.4322 47.2H97.3122L97.6722 47.52C97.1655 48.16 96.6055 48.6533 95.9922 49C95.4055 49.3467 94.5655 49.52 93.4722 49.52C92.2989 49.52 91.3655 49.2533 90.6722 48.72C90.0055 48.16 89.5655 47.4267 89.3522 46.52C88.5522 47.3733 87.7255 48.1067 86.8722 48.72C86.0455 49.3067 84.9655 49.6 83.6322 49.6ZM86.0722 47.16C86.6055 47.16 87.0989 47.04 87.5522 46.8C88.0322 46.5333 88.5922 46.1333 89.2322 45.6V38.88C88.9655 38.9333 88.6989 38.9867 88.4322 39.04C88.1655 39.0933 87.8589 39.1467 87.5122 39.2C86.2855 39.52 85.2989 40.0667 84.5522 40.84C83.8322 41.5867 83.4722 42.6 83.4722 43.88C83.4722 44.9733 83.7255 45.8 84.2322 46.36C84.7389 46.8933 85.3522 47.16 86.0722 47.16ZM106.975 49.6C105.402 49.6 103.989 49.2533 102.735 48.56C101.482 47.84 100.482 46.7467 99.7353 45.28C99.0153 43.7867 98.6553 41.88 98.6553 39.56C98.6553 37.2133 99.0686 35.28 99.8953 33.76C100.722 32.2133 101.815 31.0667 103.175 30.32C104.535 29.5467 106.015 29.16 107.615 29.16C108.549 29.16 109.442 29.2533 110.295 29.44C111.149 29.6267 111.909 29.9067 112.575 30.28V25.08C112.575 24.52 112.482 24.1067 112.295 23.84C112.135 23.5733 111.775 23.3867 111.215 23.28L110.455 23.12V22.72L117.735 20.96L118.175 21.32L118.015 26.92V46.48C118.015 47.0133 118.109 47.4533 118.295 47.8C118.482 48.12 118.829 48.3467 119.335 48.48L119.695 48.6V49L112.855 49.44L112.495 48C111.775 48.48 110.949 48.8667 110.015 49.16C109.109 49.4533 108.095 49.6 106.975 49.6ZM109.295 48.12C110.415 48.12 111.442 47.7867 112.375 47.12V31.24C111.389 30.6 110.375 30.28 109.335 30.28C108.055 30.28 106.962 31.0267 106.055 32.52C105.149 33.9867 104.695 36.3067 104.695 39.48C104.695 42.6533 105.122 44.8933 105.975 46.2C106.829 47.48 107.935 48.12 109.295 48.12ZM126.264 27.08C125.357 27.08 124.584 26.8 123.944 26.24C123.331 25.6533 123.024 24.92 123.024 24.04C123.024 23.1333 123.331 22.4 123.944 21.84C124.584 21.28 125.357 21 126.264 21C127.171 21 127.931 21.28 128.544 21.84C129.157 22.4 129.464 23.1333 129.464 24.04C129.464 24.92 129.157 25.6533 128.544 26.24C127.931 26.8 127.171 27.08 126.264 27.08ZM121.544 49V48.6L122.104 48.44C122.637 48.28 122.997 48.04 123.184 47.72C123.397 47.4 123.504 46.9733 123.504 46.44V33.92C123.504 33.36 123.397 32.9467 123.184 32.68C122.997 32.3867 122.637 32.1867 122.104 32.08L121.544 31.96V31.56L128.864 29.2L129.264 29.6L129.144 35.28V46.48C129.144 47.0133 129.237 47.44 129.424 47.76C129.637 48.08 129.997 48.32 130.504 48.48L130.904 48.6V49H121.544ZM132.755 49V48.6L133.275 48.48C133.782 48.3467 134.182 48.12 134.475 47.8C134.768 47.4533 134.915 47.0133 134.915 46.48C134.915 45.4933 134.915 44.52 134.915 43.56C134.942 42.5733 134.955 41.5867 134.955 40.6V30.56H132.715V30.12L133.595 29.96C134.128 29.9067 134.515 29.72 134.755 29.4C134.995 29.08 135.168 28.64 135.275 28.08C135.542 27.04 135.928 26.1333 136.435 25.36C136.968 24.56 137.568 23.8267 138.235 23.16C139.248 22.2 140.315 21.5333 141.435 21.16C142.582 20.76 143.702 20.56 144.795 20.56C145.862 20.56 146.835 20.7867 147.715 21.24C148.595 21.6667 149.035 22.3867 149.035 23.4C149.035 24.12 148.822 24.6933 148.395 25.12C147.968 25.52 147.368 25.72 146.595 25.72C145.955 25.72 145.368 25.5467 144.835 25.2C144.302 24.8533 143.782 24.24 143.275 23.36L142.715 22.68C142.422 22.3067 142.128 22.1333 141.835 22.16C141.542 22.16 141.328 22.3733 141.195 22.8C141.008 23.7333 140.862 24.8267 140.755 26.08C140.675 27.3333 140.635 28.56 140.635 29.76H145.115V30.56H140.635V46.4C140.635 47.4133 141.168 48.0667 142.235 48.36L143.235 48.6V49H132.755ZM150.574 58.6C149.507 58.6 148.654 58.3333 148.014 57.8C147.4 57.2667 147.094 56.5867 147.094 55.76C147.094 55.0133 147.36 54.4133 147.894 53.96C148.427 53.5067 149.027 53.28 149.694 53.28C150.36 53.28 150.92 53.4133 151.374 53.68C151.827 53.9733 152.227 54.3867 152.574 54.92L152.854 55.24C153.44 56.04 154.027 56.0267 154.614 55.2C154.854 54.8 155.12 54.2667 155.414 53.6C155.734 52.96 156.094 52.0933 156.494 51L148.734 32.44C148.547 31.9333 148.347 31.5333 148.134 31.24C147.92 30.92 147.574 30.6533 147.094 30.44L146.374 30.16V29.76H156.334V30.12L155.534 30.44C154.947 30.6267 154.64 30.9333 154.614 31.36C154.614 31.76 154.72 32.2667 154.934 32.88L159.094 43.68L163.054 32.76C163.267 32.1467 163.347 31.64 163.294 31.24C163.24 30.8133 162.907 30.52 162.294 30.36L161.454 30.16V29.76H167.014V30.16L166.134 30.44C165.52 30.6267 165.094 30.8933 164.854 31.24C164.614 31.5867 164.387 32.0667 164.174 32.68L157.734 50.24C156.694 53.04 155.654 55.1333 154.614 56.52C153.574 57.9067 152.227 58.6 150.574 58.6Z" fill="white"/>
<defs>
<linearGradient id="paint0_linear_4_63" x1="173" y1="33" x2="60" y2="33" gradientUnits="userSpaceOnUse">
<stop offset="0.259724" stop-color="#2F80ED"/>
<stop offset="0.735691" stop-color="#06408C"/>
</linearGradient>
<linearGradient id="paint1_linear_4_63" x1="41" y1="4" x2="41" y2="62" gradientUnits="userSpaceOnUse">
<stop offset="0.129904" stop-color="#2F80ED"/>
<stop offset="0.793373" stop-color="#1C61BE"/>
<stop offset="1" stop-color="#0C4695"/>
</linearGradient>
</defs>
</svg>
