<svg width="193" height="184" viewBox="0 0 193 184" fill="none" xmlns="http://www.w3.org/2000/svg">
<rect width="193" height="184" rx="28" fill="url(#paint0_linear_3_58)"/>
<path d="M128.113 148.26C130.913 147.7 133.106 146.533 134.693 144.76C136.28 142.893 137.073 140.653 137.073 138.04C137.073 136.267 136.653 134.4 135.813 132.44L102.353 51.94C101.233 49.14 99.0864 47.74 95.913 47.74C92.9264 47.74 90.8264 49.14 89.613 51.94L56.153 132.44C55.313 134.4 54.893 136.267 54.893 138.04C54.893 140.56 55.6864 142.753 57.273 144.62C58.8597 146.487 61.053 147.7 63.853 148.26L75.893 119H116.073L128.113 148.26ZM79.953 107.66L98.013 61.88L99.133 62.3L96.613 68.74L112.013 107.66H79.953Z" fill="white"/>
<defs>
<linearGradient id="paint0_linear_3_58" x1="96.5" y1="0" x2="96.5" y2="184" gradientUnits="userSpaceOnUse">
<stop offset="0.129904" stop-color="#2F80ED"/>
<stop offset="0.793373" stop-color="#1C61BE"/>
<stop offset="1" stop-color="#0C4695"/>
</linearGradient>
</defs>
</svg>
