<svg width="181" height="62" viewBox="0 0 181 62" fill="none" xmlns="http://www.w3.org/2000/svg">
<rect x="64" y="8" width="113" height="50" rx="13" fill="url(#paint0_linear_7_2)"/>
<rect y="4" width="82" height="58" rx="15" fill="url(#paint1_linear_7_2)"/>
<path d="M52.0102 50.432C52.9702 50.24 53.7222 49.84 54.2662 49.232C54.8102 48.592 55.0822 47.824 55.0822 46.928C55.0822 46.32 54.9382 45.68 54.6502 45.008L43.1782 17.408C42.7942 16.448 42.0582 15.968 40.9702 15.968C39.9462 15.968 39.2262 16.448 38.8102 17.408L27.3382 45.008C27.0502 45.68 26.9062 46.32 26.9062 46.928C26.9062 47.792 27.1782 48.544 27.7222 49.184C28.2662 49.824 29.0182 50.24 29.9782 50.432L34.1062 40.4H47.8822L52.0102 50.432ZM35.4982 36.512L41.6902 20.816L42.0742 20.96L41.2102 23.168L46.4902 36.512H35.4982Z" fill="white"/>
<path d="M59.2902 38.1C59.2902 36.06 59.6982 34.284 60.5142 32.772C61.3302 31.236 62.4582 30.048 63.8982 29.208C65.3622 28.368 67.0302 27.948 68.9022 27.948C71.3262 27.948 73.3182 28.536 74.8782 29.712C76.4622 30.888 77.5062 32.52 78.0102 34.608H74.4822C74.1462 33.408 73.4862 32.46 72.5022 31.764C71.5422 31.068 70.3422 30.72 68.9022 30.72C67.0302 30.72 65.5182 31.368 64.3662 32.664C63.2142 33.936 62.6382 35.748 62.6382 38.1C62.6382 40.476 63.2142 42.312 64.3662 43.608C65.5182 44.904 67.0302 45.552 68.9022 45.552C70.3422 45.552 71.5422 45.216 72.5022 44.544C73.4622 43.872 74.1222 42.912 74.4822 41.664H78.0102C77.4822 43.68 76.4262 45.3 74.8422 46.524C73.2582 47.724 71.2782 48.324 68.9022 48.324C67.0302 48.324 65.3622 47.904 63.8982 47.064C62.4582 46.224 61.3302 45.036 60.5142 43.5C59.6982 41.964 59.2902 40.164 59.2902 38.1ZM81.1574 38.064C81.1574 36.048 81.5654 34.284 82.3814 32.772C83.1974 31.236 84.3134 30.048 85.7294 29.208C87.1694 28.368 88.7654 27.948 90.5174 27.948C92.2454 27.948 93.7454 28.32 95.0174 29.064C96.2894 29.808 97.2374 30.744 97.8614 31.872V28.272H101.173V48H97.8614V44.328C97.2134 45.48 96.2414 46.44 94.9454 47.208C93.6734 47.952 92.1854 48.324 90.4814 48.324C88.7294 48.324 87.1454 47.892 85.7294 47.028C84.3134 46.164 83.1974 44.952 82.3814 43.392C81.5654 41.832 81.1574 40.056 81.1574 38.064ZM97.8614 38.1C97.8614 36.612 97.5614 35.316 96.9614 34.212C96.3614 33.108 95.5454 32.268 94.5134 31.692C93.5054 31.092 92.3894 30.792 91.1654 30.792C89.9414 30.792 88.8254 31.08 87.8174 31.656C86.8094 32.232 86.0054 33.072 85.4054 34.176C84.8054 35.28 84.5054 36.576 84.5054 38.064C84.5054 39.576 84.8054 40.896 85.4054 42.024C86.0054 43.128 86.8094 43.98 87.8174 44.58C88.8254 45.156 89.9414 45.444 91.1654 45.444C92.3894 45.444 93.5054 45.156 94.5134 44.58C95.5454 43.98 96.3614 43.128 96.9614 42.024C97.5614 40.896 97.8614 39.588 97.8614 38.1ZM105.486 38.064C105.486 36.048 105.894 34.284 106.71 32.772C107.526 31.236 108.642 30.048 110.058 29.208C111.498 28.368 113.106 27.948 114.882 27.948C116.418 27.948 117.846 28.308 119.166 29.028C120.486 29.724 121.494 30.648 122.19 31.8V21.36H125.502V48H122.19V44.292C121.542 45.468 120.582 46.44 119.31 47.208C118.038 47.952 116.55 48.324 114.846 48.324C113.094 48.324 111.498 47.892 110.058 47.028C108.642 46.164 107.526 44.952 106.71 43.392C105.894 41.832 105.486 40.056 105.486 38.064ZM122.19 38.1C122.19 36.612 121.89 35.316 121.29 34.212C120.69 33.108 119.874 32.268 118.842 31.692C117.834 31.092 116.718 30.792 115.494 30.792C114.27 30.792 113.154 31.08 112.146 31.656C111.138 32.232 110.334 33.072 109.734 34.176C109.134 35.28 108.834 36.576 108.834 38.064C108.834 39.576 109.134 40.896 109.734 42.024C110.334 43.128 111.138 43.98 112.146 44.58C113.154 45.156 114.27 45.444 115.494 45.444C116.718 45.444 117.834 45.156 118.842 44.58C119.874 43.98 120.69 43.128 121.29 42.024C121.89 40.896 122.19 39.588 122.19 38.1ZM132.73 25.068C132.106 25.068 131.578 24.852 131.146 24.42C130.714 23.988 130.498 23.46 130.498 22.836C130.498 22.212 130.714 21.684 131.146 21.252C131.578 20.82 132.106 20.604 132.73 20.604C133.33 20.604 133.834 20.82 134.242 21.252C134.674 21.684 134.89 22.212 134.89 22.836C134.89 23.46 134.674 23.988 134.242 24.42C133.834 24.852 133.33 25.068 132.73 25.068ZM134.314 28.272V48H131.038V28.272H134.314ZM147.925 30.972H143.785V48H140.509V30.972H137.953V28.272H140.509V26.868C140.509 24.66 141.073 23.052 142.201 22.044C143.353 21.012 145.189 20.496 147.709 20.496V23.232C146.269 23.232 145.249 23.52 144.649 24.096C144.073 24.648 143.785 25.572 143.785 26.868V28.272H147.925V30.972ZM168.737 28.272L156.857 57.288H153.473L157.361 47.784L149.405 28.272H153.041L159.233 44.256L165.353 28.272H168.737Z" fill="white"/>
<defs>
<linearGradient id="paint0_linear_7_2" x1="177" y1="33" x2="64" y2="33" gradientUnits="userSpaceOnUse">
<stop offset="0.259724" stop-color="#2F80ED"/>
<stop offset="0.735691" stop-color="#06408C"/>
</linearGradient>
<linearGradient id="paint1_linear_7_2" x1="41" y1="4" x2="41" y2="62" gradientUnits="userSpaceOnUse">
<stop offset="0.129904" stop-color="#2F80ED"/>
<stop offset="0.793373" stop-color="#1C61BE"/>
<stop offset="1" stop-color="#0C4695"/>
</linearGradient>
</defs>
</svg>
