<svg width="82" height="62" viewBox="0 0 82 62" fill="none" xmlns="http://www.w3.org/2000/svg">
<rect y="4" width="82" height="58" rx="15" fill="url(#paint0_linear_3_58)"/>
<path d="M52.0102 50.432C52.9702 50.24 53.7222 49.84 54.2662 49.232C54.8102 48.592 55.0822 47.824 55.0822 46.928C55.0822 46.32 54.9382 45.68 54.6502 45.008L43.1782 17.408C42.7942 16.448 42.0582 15.968 40.9702 15.968C39.9462 15.968 39.2262 16.448 38.8102 17.408L27.3382 45.008C27.0502 45.68 26.9062 46.32 26.9062 46.928C26.9062 47.792 27.1782 48.544 27.7222 49.184C28.2662 49.824 29.0182 50.24 29.9782 50.432L34.1062 40.4H47.8822L52.0102 50.432ZM35.4982 36.512L41.6902 20.816L42.0742 20.96L41.2102 23.168L46.4902 36.512H35.4982Z" fill="white"/>
<defs>
<linearGradient id="paint0_linear_3_58" x1="41" y1="4" x2="41" y2="62" gradientUnits="userSpaceOnUse">
<stop offset="0.129904" stop-color="#2F80ED"/>
<stop offset="0.793373" stop-color="#1C61BE"/>
<stop offset="1" stop-color="#0C4695"/>
</linearGradient>
</defs>
</svg>
