<svg width="182" height="62" viewBox="0 0 182 62" fill="none" xmlns="http://www.w3.org/2000/svg">
<rect y="4" width="82" height="58" rx="15" fill="url(#paint0_linear_4_64)"/>
<path d="M52.0102 50.432C52.9702 50.24 53.7222 49.84 54.2662 49.232C54.8102 48.592 55.0822 47.824 55.0822 46.928C55.0822 46.32 54.9382 45.68 54.6502 45.008L43.1782 17.408C42.7942 16.448 42.0582 15.968 40.9702 15.968C39.9462 15.968 39.2262 16.448 38.8102 17.408L27.3382 45.008C27.0502 45.68 26.9062 46.32 26.9062 46.928C26.9062 47.792 27.1782 48.544 27.7222 49.184C28.2662 49.824 29.0182 50.24 29.9782 50.432L34.1062 40.4H47.8822L52.0102 50.432ZM35.4982 36.512L41.6902 20.816L42.0742 20.96L41.2102 23.168L46.4902 36.512H35.4982Z" fill="white"/>
<path d="M69.6809 48.6C67.8676 48.6 66.2143 48.2133 64.7209 47.44C63.2543 46.64 62.0809 45.4933 61.2009 44C60.3476 42.48 59.9209 40.6267 59.9209 38.44C59.9209 36.28 60.3876 34.44 61.3209 32.92C62.2809 31.3733 63.5476 30.2 65.1209 29.4C66.7209 28.5733 68.4676 28.16 70.3609 28.16C71.9076 28.16 73.2143 28.4133 74.2809 28.92C75.3476 29.4267 76.1609 30.0933 76.7209 30.92C77.2809 31.72 77.5609 32.56 77.5609 33.44C77.5609 34.1867 77.3343 34.7733 76.8809 35.2C76.4276 35.6 75.8409 35.8 75.1209 35.8C74.3476 35.8 73.7209 35.52 73.2409 34.96C72.7609 34.4 72.4809 33.6667 72.4009 32.76C72.3743 32.1733 72.3876 31.68 72.4409 31.28C72.4943 30.8533 72.4943 30.4267 72.4409 30C72.3343 29.5467 72.1609 29.2533 71.9209 29.12C71.7076 28.96 71.4009 28.88 71.0009 28.88C69.3743 28.88 68.1076 29.5867 67.2009 31C66.3209 32.4133 65.8809 34.6667 65.8809 37.76C65.8809 40.4533 66.3743 42.52 67.3609 43.96C68.3743 45.3733 69.9209 46.08 72.0009 46.08C73.2543 46.08 74.2676 45.8533 75.0409 45.4C75.8143 44.9467 76.5609 44.2667 77.2809 43.36L77.6809 43.68C77.0143 45.2533 75.9876 46.4667 74.6009 47.32C73.2143 48.1733 71.5743 48.6 69.6809 48.6ZM85.1322 48.6C83.5855 48.6 82.2789 48.16 81.2122 47.28C80.1722 46.4 79.6522 45.1333 79.6522 43.48C79.6522 42.2267 80.2922 41.08 81.5722 40.04C82.8522 38.9733 84.8655 38.1733 87.6122 37.64C88.0389 37.56 88.5189 37.48 89.0522 37.4C89.5855 37.2933 90.1455 37.1867 90.7322 37.08V33.92C90.7322 32.1067 90.5055 30.84 90.0522 30.12C89.6255 29.3733 88.9455 29 88.0122 29C87.3722 29 86.8655 29.2133 86.4922 29.64C86.1189 30.04 85.8789 30.7467 85.7722 31.76L85.6922 32.2C85.6389 33.3467 85.3589 34.1867 84.8522 34.72C84.3455 35.2533 83.7189 35.52 82.9722 35.52C82.2789 35.52 81.7055 35.3067 81.2522 34.88C80.7989 34.4533 80.5722 33.88 80.5722 33.16C80.5722 32.0667 80.9455 31.1467 81.6922 30.4C82.4655 29.6533 83.4789 29.0933 84.7322 28.72C85.9855 28.3467 87.3455 28.16 88.8122 28.16C91.1855 28.16 93.0122 28.7467 94.2922 29.92C95.5989 31.0667 96.2522 32.9467 96.2522 35.56V44.4C96.2522 45.6 96.8122 46.2 97.9322 46.2H98.8122L99.1722 46.52C98.6655 47.16 98.1055 47.6533 97.4922 48C96.9055 48.3467 96.0655 48.52 94.9722 48.52C93.7989 48.52 92.8655 48.2533 92.1722 47.72C91.5055 47.16 91.0655 46.4267 90.8522 45.52C90.0522 46.3733 89.2255 47.1067 88.3722 47.72C87.5455 48.3067 86.4655 48.6 85.1322 48.6ZM87.5722 46.16C88.1055 46.16 88.5989 46.04 89.0522 45.8C89.5322 45.5333 90.0922 45.1333 90.7322 44.6V37.88C90.4655 37.9333 90.1989 37.9867 89.9322 38.04C89.6655 38.0933 89.3589 38.1467 89.0122 38.2C87.7855 38.52 86.7989 39.0667 86.0522 39.84C85.3322 40.5867 84.9722 41.6 84.9722 42.88C84.9722 43.9733 85.2255 44.8 85.7322 45.36C86.2389 45.8933 86.8522 46.16 87.5722 46.16ZM108.475 48.6C106.902 48.6 105.489 48.2533 104.235 47.56C102.982 46.84 101.982 45.7467 101.235 44.28C100.515 42.7867 100.155 40.88 100.155 38.56C100.155 36.2133 100.569 34.28 101.395 32.76C102.222 31.2133 103.315 30.0667 104.675 29.32C106.035 28.5467 107.515 28.16 109.115 28.16C110.049 28.16 110.942 28.2533 111.795 28.44C112.649 28.6267 113.409 28.9067 114.075 29.28V24.08C114.075 23.52 113.982 23.1067 113.795 22.84C113.635 22.5733 113.275 22.3867 112.715 22.28L111.955 22.12V21.72L119.235 19.96L119.675 20.32L119.515 25.92V45.48C119.515 46.0133 119.609 46.4533 119.795 46.8C119.982 47.12 120.329 47.3467 120.835 47.48L121.195 47.6V48L114.355 48.44L113.995 47C113.275 47.48 112.449 47.8667 111.515 48.16C110.609 48.4533 109.595 48.6 108.475 48.6ZM110.795 47.12C111.915 47.12 112.942 46.7867 113.875 46.12V30.24C112.889 29.6 111.875 29.28 110.835 29.28C109.555 29.28 108.462 30.0267 107.555 31.52C106.649 32.9867 106.195 35.3067 106.195 38.48C106.195 41.6533 106.622 43.8933 107.475 45.2C108.329 46.48 109.435 47.12 110.795 47.12ZM127.764 26.08C126.857 26.08 126.084 25.8 125.444 25.24C124.831 24.6533 124.524 23.92 124.524 23.04C124.524 22.1333 124.831 21.4 125.444 20.84C126.084 20.28 126.857 20 127.764 20C128.671 20 129.431 20.28 130.044 20.84C130.657 21.4 130.964 22.1333 130.964 23.04C130.964 23.92 130.657 24.6533 130.044 25.24C129.431 25.8 128.671 26.08 127.764 26.08ZM123.044 48V47.6L123.604 47.44C124.137 47.28 124.497 47.04 124.684 46.72C124.897 46.4 125.004 45.9733 125.004 45.44V32.92C125.004 32.36 124.897 31.9467 124.684 31.68C124.497 31.3867 124.137 31.1867 123.604 31.08L123.044 30.96V30.56L130.364 28.2L130.764 28.6L130.644 34.28V45.48C130.644 46.0133 130.737 46.44 130.924 46.76C131.137 47.08 131.497 47.32 132.004 47.48L132.404 47.6V48H123.044ZM134.255 48V47.6L134.775 47.48C135.282 47.3467 135.682 47.12 135.975 46.8C136.268 46.4533 136.415 46.0133 136.415 45.48C136.415 44.4933 136.415 43.52 136.415 42.56C136.442 41.5733 136.455 40.5867 136.455 39.6V29.56H134.215V29.12L135.095 28.96C135.628 28.9067 136.015 28.72 136.255 28.4C136.495 28.08 136.668 27.64 136.775 27.08C137.042 26.04 137.428 25.1333 137.935 24.36C138.468 23.56 139.068 22.8267 139.735 22.16C140.748 21.2 141.815 20.5333 142.935 20.16C144.082 19.76 145.202 19.56 146.295 19.56C147.362 19.56 148.335 19.7867 149.215 20.24C150.095 20.6667 150.535 21.3867 150.535 22.4C150.535 23.12 150.322 23.6933 149.895 24.12C149.468 24.52 148.868 24.72 148.095 24.72C147.455 24.72 146.868 24.5467 146.335 24.2C145.802 23.8533 145.282 23.24 144.775 22.36L144.215 21.68C143.922 21.3067 143.628 21.1333 143.335 21.16C143.042 21.16 142.828 21.3733 142.695 21.8C142.508 22.7333 142.362 23.8267 142.255 25.08C142.175 26.3333 142.135 27.56 142.135 28.76H146.615V29.56H142.135V45.4C142.135 46.4133 142.668 47.0667 143.735 47.36L144.735 47.6V48H134.255ZM152.074 57.6C151.007 57.6 150.154 57.3333 149.514 56.8C148.9 56.2667 148.594 55.5867 148.594 54.76C148.594 54.0133 148.86 53.4133 149.394 52.96C149.927 52.5067 150.527 52.28 151.194 52.28C151.86 52.28 152.42 52.4133 152.874 52.68C153.327 52.9733 153.727 53.3867 154.074 53.92L154.354 54.24C154.94 55.04 155.527 55.0267 156.114 54.2C156.354 53.8 156.62 53.2667 156.914 52.6C157.234 51.96 157.594 51.0933 157.994 50L150.234 31.44C150.047 30.9333 149.847 30.5333 149.634 30.24C149.42 29.92 149.074 29.6533 148.594 29.44L147.874 29.16V28.76H157.834V29.12L157.034 29.44C156.447 29.6267 156.14 29.9333 156.114 30.36C156.114 30.76 156.22 31.2667 156.434 31.88L160.594 42.68L164.554 31.76C164.767 31.1467 164.847 30.64 164.794 30.24C164.74 29.8133 164.407 29.52 163.794 29.36L162.954 29.16V28.76H168.514V29.16L167.634 29.44C167.02 29.6267 166.594 29.8933 166.354 30.24C166.114 30.5867 165.887 31.0667 165.674 31.68L159.234 49.24C158.194 52.04 157.154 54.1333 156.114 55.52C155.074 56.9067 153.727 57.6 152.074 57.6Z" fill="white"/>
<defs>
<linearGradient id="paint0_linear_4_64" x1="41" y1="4" x2="41" y2="62" gradientUnits="userSpaceOnUse">
<stop offset="0.129904" stop-color="#2F80ED"/>
<stop offset="0.793373" stop-color="#1C61BE"/>
<stop offset="1" stop-color="#0C4695"/>
</linearGradient>
</defs>
</svg>
